<svg
  className="size-5"
  xmlns="http://www.w3.org/2000/svg"
  width="24"
  height="24"
  viewBox="0 0 24 24"
  fill="none"
>
  <path
    fillRule="evenodd"
    clipRule="evenodd"
    d="M12 2C10.3431 2 9 3.34315 9 5V5.26756C6.6734 6.08471 5 8.31672 5 11V16H4C3.44772 16 3 16.4477 3 17C3 17.5523 3.44772 18 4 18H20C20.5523 18 21 17.5523 21 17C21 16.4477 20.5523 16 20 16H19V11C19 8.31672 17.3266 6.08471 15 5.26756V5C15 3.34315 13.6569 2 12 2ZM10.2676 5.73244C10.6134 5.26972 11.2714 5 12 5C12.7286 5 13.3866 5.26972 13.7324 5.73244C13.3016 5.58875 12.8435 5.51002 12.3774 5.50107L12 5.5C11.4065 5.5 10.8281 5.58578 10.2676 5.73244ZM7 11C7 8.79086 8.79086 7 11 7H13C15.2091 7 17 8.79086 17 11V16H7V11ZM10 19C10 19.5523 10.4477 20 11 20H13C13.5523 20 14 19.5523 14 19H10Z"
    fill="currentColor"
  />
</svg>
